<svg width="40" height="40" viewBox="0 0 40 40" fill="none" xmlns="http://www.w3.org/2000/svg">
<g clip-path="url(#clip0_0_1)">
<g clip-path="url(#clip1_0_1)">
<path d="M16.9918 9.7739H14.897V11.9847H16.9918V9.7739Z" fill="black"/>
<path d="M21.1808 9.77391H23.2757V7.6795H21.1808H19.086H16.9912V9.77391H19.086H21.1808Z" fill="black"/>
<path d="M25.4869 9.7739H23.3921V11.9847H25.4869V9.7739Z" fill="black"/>
<path d="M27.5821 11.9847H25.4873V14.0791H27.5821V11.9847Z" fill="black"/>
<path d="M29.6768 9.7739H27.582V11.9847H29.6768V9.7739Z" fill="black"/>
<path d="M33.9828 7.6795H31.7716H31.5388H29.6768V9.77391H31.5388H31.7716H33.9828H36.0776V7.6795H33.9828Z" fill="black"/>
<path d="M38.1725 9.7739H36.0776V11.9847H38.1725V9.7739Z" fill="black"/>
<path d="M38.1724 11.9847V14.0791V16.1735V20.4787H40.3836V16.1735V14.0791V11.9847H38.1724Z" fill="black"/>
<path d="M38.1725 20.4786H36.0776V22.573H38.1725V20.4786Z" fill="black"/>
<path d="M36.0777 22.5731H33.9829V24.6675H36.0777V22.5731Z" fill="black"/>
<path d="M33.9832 24.6675H31.772V26.7619H33.9832V24.6675Z" fill="black"/>
<path d="M31.7716 26.7619H29.6768V28.8563H31.7716V26.7619Z" fill="black"/>
<path d="M29.6768 28.9727H27.582V31.0671H29.6768V28.9727Z" fill="black"/>
<path d="M27.5821 31.067H25.4873V33.1615H27.5821V31.067Z" fill="black"/>
<path d="M25.4869 28.9727H23.3921V31.0671H25.4869V28.9727Z" fill="black"/>
<path d="M23.3923 26.7619H21.1812V28.9726H23.3923V26.7619Z" fill="black"/>
<path d="M21.1812 24.6675H19.0864V26.7619H21.1812V24.6675Z" fill="black"/>
<path d="M19.086 22.5731H16.9912V24.6675H19.086V22.5731Z" fill="black"/>
<path d="M16.9918 20.4786H14.897V22.573H16.9918V20.4786Z" fill="black"/>
<path d="M14.8967 18.2679V16.1735V14.0791V11.9847H12.6855V14.0791V16.1735V18.2679V20.3623H14.8967V18.2679Z" fill="black"/>
<path d="M16.9918 11.9847H14.897V14.0791H16.9918V11.9847Z" fill="white"/>
<path d="M36.0779 11.9847V9.7739H33.983H31.7719H31.3063H29.677V11.9847H27.5822V14.0791H25.4874V11.9847H23.3926V9.7739H21.1814H19.0866V11.9847H16.9918V14.0791H14.897V20.4786H16.9918V22.5731H19.0866V24.6675H21.1814V26.7619H23.3926V28.9726H25.4874V31.067H27.5822V28.9726H29.677V26.7619H31.7719V24.6675H33.983V22.5731H36.0779V20.4786H38.1727V11.9847H36.0779Z" fill="#CE0002"/>
<path d="M19.086 9.7739H16.9912V11.8683H19.086V9.7739Z" fill="white"/>
</g>
</g>
<defs>
<clipPath id="clip1_0_1">
<rect width="40" height="40" fill="white"/>
</clipPath>
</defs>
</svg>
