<svg width="32" height="32" viewBox="0 0 32 32" fill="none" xmlns="http://www.w3.org/2000/svg">
<g id="Facebook">
<path id="Vector" fill-rule="evenodd" clip-rule="evenodd" d="M2.66699 8.00002C2.66699 6.58553 3.2289 5.22898 4.22909 4.22878C5.22928 3.22859 6.58584 2.66669 8.00033 2.66669H24.0003C25.4148 2.66669 26.7714 3.22859 27.7716 4.22878C28.7718 5.22898 29.3337 6.58553 29.3337 8.00002V24C29.3337 25.4145 28.7718 26.7711 27.7716 27.7713C26.7714 28.7715 25.4148 29.3334 24.0003 29.3334H8.00033C6.58584 29.3334 5.22928 28.7715 4.22909 27.7713C3.2289 26.7711 2.66699 25.4145 2.66699 24V8.00002ZM8.00033 5.33335C7.29308 5.33335 6.6148 5.61431 6.11471 6.1144C5.61461 6.6145 5.33366 7.29278 5.33366 8.00002V24C5.33366 24.7073 5.61461 25.3855 6.11471 25.8856C6.6148 26.3857 7.29308 26.6667 8.00033 26.6667H16.0003V17.3334H14.667C14.3134 17.3334 13.9742 17.1929 13.7242 16.9428C13.4741 16.6928 13.3337 16.3536 13.3337 16C13.3337 15.6464 13.4741 15.3073 13.7242 15.0572C13.9742 14.8072 14.3134 14.6667 14.667 14.6667H16.0003V12.6667C16.0003 11.429 16.492 10.242 17.3672 9.36686C18.2423 8.49169 19.4293 8.00002 20.667 8.00002H21.467C21.8206 8.00002 22.1598 8.1405 22.4098 8.39055C22.6598 8.64059 22.8003 8.97973 22.8003 9.33335C22.8003 9.68698 22.6598 10.0261 22.4098 10.2762C22.1598 10.5262 21.8206 10.6667 21.467 10.6667H20.667C20.4043 10.6667 20.1443 10.7184 19.9016 10.8189C19.659 10.9194 19.4385 11.0668 19.2528 11.2525C19.0671 11.4382 18.9197 11.6587 18.8192 11.9013C18.7187 12.144 18.667 12.404 18.667 12.6667V14.6667H21.467C21.8206 14.6667 22.1598 14.8072 22.4098 15.0572C22.6598 15.3073 22.8003 15.6464 22.8003 16C22.8003 16.3536 22.6598 16.6928 22.4098 16.9428C22.1598 17.1929 21.8206 17.3334 21.467 17.3334H18.667V26.6667H24.0003C24.7076 26.6667 25.3858 26.3857 25.8859 25.8856C26.386 25.3855 26.667 24.7073 26.667 24V8.00002C26.667 7.29278 26.386 6.6145 25.8859 6.1144C25.3858 5.61431 24.7076 5.33335 24.0003 5.33335H8.00033Z" fill="#C4B6B6"/>
</g>
</svg>
