<svg width="121" height="67" viewBox="0 0 121 67" fill="none" xmlns="http://www.w3.org/2000/svg">
<rect width="121" height="67" fill="#1E1E1E"/>
<g clip-path="url(#clip0_0_1)">
<rect width="1920" height="1073" transform="translate(-1495 -372)" fill="white"/>
<rect x="-1497" y="-372" width="1922" height="1161" fill="#FAFAFA"/>
<g clip-path="url(#clip1_0_1)">
<path d="M16.9918 9.7739H14.897V11.9847H16.9918V9.7739Z" fill="black"/>
<path d="M21.1808 9.77391H23.2757V7.6795H21.1808H19.086H16.9912V9.77391H19.086H21.1808Z" fill="black"/>
<path d="M25.4869 9.7739H23.3921V11.9847H25.4869V9.7739Z" fill="black"/>
<path d="M27.5821 11.9847H25.4873V14.0791H27.5821V11.9847Z" fill="black"/>
<path d="M29.6768 9.7739H27.582V11.9847H29.6768V9.7739Z" fill="black"/>
<path d="M33.9828 7.6795H31.7716H31.5388H29.6768V9.77391H31.5388H31.7716H33.9828H36.0776V7.6795H33.9828Z" fill="black"/>
<path d="M38.1725 9.7739H36.0776V11.9847H38.1725V9.7739Z" fill="black"/>
<path d="M38.1724 11.9847V14.0791V16.1735V20.4787H40.3836V16.1735V14.0791V11.9847H38.1724Z" fill="black"/>
<path d="M38.1725 20.4786H36.0776V22.573H38.1725V20.4786Z" fill="black"/>
<path d="M36.0777 22.5731H33.9829V24.6675H36.0777V22.5731Z" fill="black"/>
<path d="M33.9832 24.6675H31.772V26.7619H33.9832V24.6675Z" fill="black"/>
<path d="M31.7716 26.7619H29.6768V28.8563H31.7716V26.7619Z" fill="black"/>
<path d="M29.6768 28.9727H27.582V31.0671H29.6768V28.9727Z" fill="black"/>
<path d="M27.5821 31.067H25.4873V33.1615H27.5821V31.067Z" fill="black"/>
<path d="M25.4869 28.9727H23.3921V31.0671H25.4869V28.9727Z" fill="black"/>
<path d="M23.3923 26.7619H21.1812V28.9726H23.3923V26.7619Z" fill="black"/>
<path d="M21.1812 24.6675H19.0864V26.7619H21.1812V24.6675Z" fill="black"/>
<path d="M19.086 22.5731H16.9912V24.6675H19.086V22.5731Z" fill="black"/>
<path d="M16.9918 20.4786H14.897V22.573H16.9918V20.4786Z" fill="black"/>
<path d="M14.8967 18.2679V16.1735V14.0791V11.9847H12.6855V14.0791V16.1735V18.2679V20.3623H14.8967V18.2679Z" fill="black"/>
<path d="M16.9918 11.9847H14.897V14.0791H16.9918V11.9847Z" fill="white"/>
<path d="M36.0779 11.9847V9.7739H33.983H31.7719H31.3063H29.677V11.9847H27.5822V14.0791H25.4874V11.9847H23.3926V9.7739H21.1814H19.0866V11.9847H16.9918V14.0791H14.897V20.4786H16.9918V22.5731H19.0866V24.6675H21.1814V26.7619H23.3926V28.9726H25.4874V31.067H27.5822V28.9726H29.677V26.7619H31.7719V24.6675H33.983V22.5731H36.0779V20.4786H38.1727V11.9847H36.0779Z" fill="#CE0002"/>
<path d="M19.086 9.7739H16.9912V11.8683H19.086V9.7739Z" fill="white"/>
<path d="M70.06 11.9847V9.77391H67.9652V7.6795H65.8703H63.7755H61.6807V9.77391H59.4695V11.9847H57.3747V9.77391H55.1635V7.6795H53.0687H50.9739H48.8791V9.77391H50.9739V11.9847H48.8791V14.0791H46.7843V11.9847H48.8791V9.77391H46.7843V11.9847H44.6895V14.0791V16.1735V18.2679V20.3623H46.7843V22.5731H48.8791V20.3623H46.7843V18.2679H48.8791H50.9739H53.0687H55.1635H57.3747H59.4695H61.5643H63.7755H65.8703H67.9652H70.06V20.3623H67.9652V22.5731H70.06V20.3623H72.2712V18.2679V16.1735V14.0791V11.9847H70.06Z" fill="black"/>
<path d="M67.9649 22.5731H65.8701V24.6675H67.9649V22.5731Z" fill="black"/>
<path d="M65.8707 24.6675H63.7759V26.7619H65.8707V24.6675Z" fill="black"/>
<path d="M63.7757 26.7619H61.5645V28.8563H63.7757V26.7619Z" fill="black"/>
<path d="M61.564 28.8563H59.4692V31.0671H61.564V28.8563Z" fill="black"/>
<path d="M59.4698 31.067H57.375V33.1615H59.4698V31.067Z" fill="black"/>
<path d="M57.3748 28.8563H55.1636V31.0671H57.3748V28.8563Z" fill="black"/>
<path d="M55.1632 26.7619H53.0684V28.8563H55.1632V26.7619Z" fill="black"/>
<path d="M53.0689 24.6675H50.9741V26.7619H53.0689V24.6675Z" fill="black"/>
<path d="M50.9737 22.5731H48.8789V24.6675H50.9737V22.5731Z" fill="black"/>
<path d="M48.8795 11.9847H46.7847V14.0791H48.8795V11.9847Z" fill="white"/>
<path d="M67.9655 18.2679H65.8707H63.7759H61.5647H59.4699H57.3751H55.1639H53.0691H50.9743H48.8795H46.7847V20.3623H48.8795V22.5731H50.9743V24.6675H53.0691V26.7619H55.1639V28.8563H57.3751V31.0671H59.4699V28.8563H61.5647V26.7619H63.7759V24.6675H65.8707V22.5731H67.9655V20.3623H70.0604V18.2679H67.9655Z" fill="#CE0002"/>
<path d="M50.9742 9.7739H48.8794V11.8683H50.9742V9.7739Z" fill="white"/>
<path d="M80.7677 9.89029H78.6729V11.9847H80.7677V9.89029Z" fill="black"/>
<path d="M101.948 11.9847V9.77391H99.8533V7.6795H97.7585H95.6637H93.5689V9.77391H91.3577V11.9847H89.2629V9.77391H87.1681V7.79586H84.9569H84.6077H82.8621H80.7673V9.89027H82.8621V11.9847H80.7673V14.0791H78.6724V11.9847H76.5776V14.0791V16.1735V18.2679V20.3623H78.6724V22.5731H80.7673V24.6675H82.8621V26.7619H84.2586H84.9569H85.0733V28.8563H87.1681V31.0671H89.2629V33.1615H91.3577V31.0671H89.2629V28.8563H87.1681V26.7619H89.2629H91.3577H93.4525V28.8563H91.3577V31.0671H93.4525V28.8563H95.6637V26.7619H97.7585V24.6675H99.8533V22.5731H101.948V20.3623H104.159V18.2679V16.1735V14.0791V11.9847H101.948Z" fill="black"/>
<path d="M80.7667 11.9847H78.6719V14.0791H80.7667V11.9847Z" fill="white"/>
<path d="M91.3575 28.8563H89.2627V31.0671H91.3575V28.8563Z" fill="#CE0002"/>
<path d="M89.2628 26.7619H87.168V28.8563H89.2628V26.7619Z" fill="#CE0002"/>
<path d="M91.3575 26.7619H89.2627V28.8563H91.3575V26.7619Z" fill="#CE0002"/>
<path d="M93.4522 26.7619H91.3574V28.8563H93.4522V26.7619Z" fill="#CE0002"/>
<path d="M82.8619 9.89029H80.7671V11.9847H82.8619V9.89029Z" fill="white"/>
<path d="M12.1035 51.0803V49.8003H10.8233V51.0803V52.3602V53.6401V54.92V56.1999V57.4798V58.7597H12.1035V60.0397H10.8233H9.54313H8.26296H6.9828V58.7597H8.26296V57.4798V56.1999V54.92V53.6401V52.3602V51.0803V49.8003H6.9828V51.0803H5.70264V49.8003V48.5204V47.2405H6.9828H8.26296H9.54313H10.8233H12.1035H13.3836V48.5204V49.8003V51.0803H12.1035Z" fill="black"/>
<path d="M22.1116 59.9233H20.8314H19.5513H18.2711H16.9909V58.6434H15.8271V57.3635V56.0836V54.8036V53.5237V52.2438H17.1073V50.9639H18.3875H19.6676H20.9478H22.228H23.5081V52.2438H24.7883V53.5237V54.8036V56.0836V57.3635V58.6434H23.5081V59.9233H22.1116ZM20.9478 58.6434H22.228V57.3635V56.0836V54.8036V53.5237V52.2438H20.9478H19.6676H18.3875V53.5237V54.8036V56.0836V57.3635V58.6434H19.6676H20.9478Z" fill="black"/>
<path d="M32.2367 63.6467H30.9565H29.7927H28.5126H27.2324V62.3668H28.5126H29.7927H30.9565H32.2367V61.2032H33.5169V59.9233H32.2367H30.9565H29.7927H28.5126V58.6434H27.2324V57.3635V56.0836V54.8036V53.5237V52.2438V50.9639H28.5126H29.7927V52.2438V53.5237V54.8036V56.0836V57.3635V58.6434H30.9565H32.2367H33.5169V57.3635V56.0836V54.8036V53.5237V52.2438V50.9639H34.797H36.0772V52.2438V53.5237V54.8036V56.0836V57.3635V58.6434V59.9233V61.2032H34.797V62.4831H33.5169V63.7631L32.2367 63.6467Z" fill="black"/>
<path d="M43.642 59.9233H42.3618V58.6434V57.3635H43.642H44.9221V58.6434V59.9233H43.642Z" fill="black"/>
<path d="M56.2109 59.9233H54.9307H53.6505H52.3704H51.0902V58.6434H49.8101V57.3635V56.0836H51.0902H52.3704V57.3635V58.6434H53.6505H54.9307H56.2109V57.3635V56.0836V54.8036H54.9307V53.5237H53.6505H52.3704V52.2438H51.0902V50.9639H49.8101V49.684V48.4041H51.0902V47.2405H52.3704H53.6505H54.9307H56.2109H57.491V48.5204H58.7712V49.8003V51.0803H57.491H56.2109V49.8003V48.5204H54.9307H53.6505H52.3704V49.8003V51.0803H53.6505V52.3602H54.9307H56.2109V53.6401H57.491V54.92H58.7712V56.1999V57.4798V58.7597H57.491V60.0397L56.2109 59.9233Z" fill="black"/>
<path d="M67.6157 59.9233H66.3355H65.0553V58.6434H63.7752V57.3635V56.0836V54.8036V53.5237V52.2438H62.495H61.2148V50.9639H62.495H63.7752V49.684V48.4041H65.0553V47.2405H66.3355V48.5204V49.8003V51.0803H67.6157H68.8958V52.3602H67.6157H66.3355V53.6401V54.92V56.1999V57.4798V58.7597H67.6157V57.4798H68.8958H70.176V58.7597H68.8958V60.0397L67.6157 59.9233Z" fill="black"/>
<path d="M76.4606 59.9233H75.1804H73.9003H72.6201V58.6434H73.9003V57.3635V56.0836V54.8036V53.5237V52.2438H72.6201V50.9639H73.9003H75.1804V52.2438H76.4606V50.9639H77.7408H79.0209H80.3011V52.2438H81.5813V53.5237V54.8036H80.3011H79.0209V53.5237V52.2438H77.7408V53.5237H76.4606V54.8036V56.0836V57.3635V58.6434H77.7408V59.9233H76.4606Z" fill="black"/>
<path d="M90.3095 59.9233H89.0293H87.7492H86.469H85.1889V58.6434H83.9087V57.3635V56.0836V54.8036V53.5237V52.2438H85.1889V50.9639H86.469H87.7492H89.0293H90.3095H91.5897V52.2438H92.8698V53.5237V54.8036H91.5897H90.3095H89.0293H87.7492H86.469V56.0836V57.3635V58.6434H87.7492H89.0293H90.3095V57.3635H91.5897H92.8698V58.6434H91.5897V59.9233H90.3095ZM89.0293 53.6401H90.3095V52.3602H89.0293H87.7492H86.469V53.6401H87.7492H89.0293Z" fill="black"/>
<path d="M102.995 59.9233H101.715V58.6434H100.435V57.3635V56.0836V54.8036H99.1545H97.8743V56.0836V57.3635V58.6434H99.1545H100.435V59.9233H99.1545H97.8743H96.5941V58.6434H95.314V57.3635V56.0836V54.8036H96.5941V53.5237H97.8743H99.1545H100.435V52.2438H99.1545H97.8743H96.5941V50.9639H97.8743H99.1545H100.435H101.715V52.2438H102.995V53.5237V54.8036V56.0836V57.3635V58.6434H104.275V59.9233H102.995Z" fill="black"/>
<path d="M110.56 58.6434V57.3635V56.0836V54.8036V53.5237H109.28V54.8036V56.0836V57.3635V58.6434V59.9233H107.999H106.719V58.6434V57.3635V56.0836V54.8036V53.5237V52.2438V50.9639H107.999H109.28H110.56V52.2438H111.84V50.9639H113.12H114.4V52.2438H115.68V53.5237V54.8036V56.0836V57.3635V58.6434V59.9233H114.4H113.12V58.6434V57.3635V56.0836V54.8036V53.5237H111.84V54.8036V56.0836V57.3635V58.6434H110.56Z" fill="black"/>
</g>
</g>
<defs>
<clipPath id="clip0_0_1">
<rect width="1920" height="1073" fill="white" transform="translate(-1495 -372)"/>
</clipPath>
<clipPath id="clip1_0_1">
<rect width="120.219" height="66.7883" fill="white"/>
</clipPath>
</defs>
</svg>
