<svg width="32" height="32" viewBox="0 0 32 32" fill="none" xmlns="http://www.w3.org/2000/svg">
<path fill-rule="evenodd" clip-rule="evenodd" d="M15.3332 11.3333C15.3332 12.528 14.8838 13.6186 14.1452 14.444C15.182 15.1814 15.9575 16.2294 16.3597 17.4364C16.762 18.6435 16.7701 19.9472 16.3829 21.1591C15.9957 22.3711 15.2333 23.4286 14.2058 24.179C13.1783 24.9293 11.9388 25.3335 10.6665 25.3333H4.6665C4.13607 25.3333 3.62736 25.1226 3.25229 24.7475C2.87722 24.3725 2.6665 23.8637 2.6665 23.3333V7.33331C2.6665 6.80288 2.87722 6.29417 3.25229 5.9191C3.62736 5.54403 4.13607 5.33331 4.6665 5.33331H9.99984C11.4143 5.33331 12.7709 5.89522 13.7711 6.89541C14.7713 7.8956 15.3332 9.25216 15.3332 10.6666V11.3333ZM5.33317 13.3333V7.99998H9.99984C10.7071 7.99998 11.3854 8.28093 11.8855 8.78103C12.3856 9.28113 12.6665 9.9594 12.6665 10.6666V11.3333C12.6665 11.8637 12.4558 12.3725 12.0807 12.7475C11.7056 13.1226 11.1969 13.3333 10.6665 13.3333H5.33317ZM5.33317 16H10.6665C11.5506 16 12.3984 16.3512 13.0235 16.9763C13.6486 17.6014 13.9998 18.4493 13.9998 19.3333C13.9998 20.2174 13.6486 21.0652 13.0235 21.6903C12.3984 22.3155 11.5506 22.6666 10.6665 22.6666H5.33317V16Z" fill="#C4B6B6"/>
<path d="M20 8.00002C20 7.6464 20.1405 7.30726 20.3905 7.05721C20.6406 6.80716 20.9797 6.66669 21.3333 6.66669H26C26.3536 6.66669 26.6928 6.80716 26.9428 7.05721C27.1929 7.30726 27.3333 7.6464 27.3333 8.00002C27.3333 8.35364 27.1929 8.69278 26.9428 8.94283C26.6928 9.19288 26.3536 9.33335 26 9.33335H21.3333C20.9797 9.33335 20.6406 9.19288 20.3905 8.94283C20.1405 8.69278 20 8.35364 20 8.00002Z" fill="#C4B6B6"/>
<path fill-rule="evenodd" clip-rule="evenodd" d="M23.6665 10.6666C19.8785 10.6666 16.6665 13.576 16.6665 17.3333V18.6666C16.6665 22.424 19.8785 25.3333 23.6665 25.3333C25.6865 25.3333 27.1492 24.752 28.1292 24.12C28.7185 23.7413 29.1812 23.28 29.6265 22.7493C29.8203 22.4583 29.892 22.1028 29.8262 21.7594C29.7604 21.4161 29.5624 21.1123 29.2748 20.9135C28.9872 20.7147 28.633 20.6368 28.2886 20.6967C27.9441 20.7565 27.6369 20.9492 27.4332 21.2333C27.2216 21.4881 26.9693 21.7062 26.6865 21.8786C26.1118 22.248 25.1452 22.6666 23.6665 22.6666C21.1958 22.6666 19.3332 20.8 19.3332 18.6666H29.3332C29.6868 18.6666 30.0259 18.5261 30.276 18.2761C30.526 18.0261 30.6665 17.6869 30.6665 17.3333C30.6665 13.576 27.4545 10.6666 23.6665 10.6666ZM27.7505 16C27.1638 14.4786 25.6012 13.3333 23.6665 13.3333C21.7318 13.3333 20.1692 14.4786 19.5825 16H27.7505Z" fill="#C4B6B6"/>
</svg>
