<svg width="32" height="32" viewBox="0 0 32 32" fill="none" xmlns="http://www.w3.org/2000/svg">
<g id="Dribbble">
<path id="Vector" fill-rule="evenodd" clip-rule="evenodd" d="M4.79467 14.2906C8.25067 14.5773 11.56 13.884 14.3 12.3173C12.9215 10.2697 11.3064 8.39186 9.488 6.72262C8.23517 7.60176 7.17341 8.72558 6.36678 10.0263C5.56015 11.327 5.02535 12.7776 4.79467 14.2906V14.2906ZM8.92533 3.91729C6.81662 5.15139 5.06778 6.91612 3.8528 9.03591C2.63781 11.1557 1.99903 13.5567 2 16C2 23.732 8.268 30 16 30C23.732 30 30 23.732 30 16C30 8.26796 23.732 1.99996 16 1.99996C13.5131 1.99593 11.0704 2.65748 8.92533 3.91596V3.91729ZM11.9733 5.40129C13.6545 7.03458 15.1638 8.836 16.4773 10.7773C18.1401 9.34269 19.4303 7.52637 20.2373 5.48396C18.8905 4.94187 17.4518 4.66436 16 4.66662C14.6246 4.66509 13.2605 4.91451 11.9747 5.40262L11.9733 5.40129ZM22.588 6.77729C21.5677 9.22706 19.9588 11.3873 17.904 13.0666C18.368 13.8786 18.7987 14.7093 19.1947 15.556C21.7053 14.5786 24.4213 14.128 27.2147 14.3586C26.9939 12.8488 26.4704 11.3991 25.6756 10.0966C24.8808 8.79405 23.831 7.66549 22.5893 6.77862L22.588 6.77729ZM27.2853 17.0413C24.856 16.7933 22.4587 17.1613 20.2293 18.016C21.1509 20.4526 21.7615 22.9958 22.0467 25.5853C23.5164 24.6581 24.7531 23.4053 25.6613 21.9238C26.5694 20.4423 27.1246 18.7717 27.284 17.0413H27.2853ZM19.4773 26.788C19.2811 24.1826 18.7206 21.6176 17.812 19.168C14.988 20.7906 12.564 23.216 10.88 26.1133C12.4667 26.9178 14.221 27.3359 16 27.3333C17.2133 27.3333 18.3827 27.1426 19.4787 26.7893L19.4773 26.788ZM8.65733 24.6333C10.6093 21.3346 13.444 18.5373 16.78 16.688C16.446 15.974 16.0858 15.2726 15.7 14.5853C12.4813 16.4413 8.63333 17.2573 4.70533 16.9573C4.9559 19.9379 6.37687 22.6978 8.65733 24.6333V24.6333Z" fill="#C4B6B6"/>
</g>
</svg>
