<svg width="32" height="32" viewBox="0 0 32 32" fill="none" xmlns="http://www.w3.org/2000/svg">
<g id="Linkedin">
<path id="Vector" fill-rule="evenodd" clip-rule="evenodd" d="M8.00033 2.66669C6.58584 2.66669 5.22928 3.22859 4.22909 4.22878C3.2289 5.22898 2.66699 6.58553 2.66699 8.00002V24C2.66699 25.4145 3.2289 26.7711 4.22909 27.7713C5.22928 28.7715 6.58584 29.3334 8.00033 29.3334H24.0003C25.4148 29.3334 26.7714 28.7715 27.7716 27.7713C28.7718 26.7711 29.3337 25.4145 29.3337 24V8.00002C29.3337 6.58553 28.7718 5.22898 27.7716 4.22878C26.7714 3.22859 25.4148 2.66669 24.0003 2.66669H8.00033ZM5.33366 8.00002C5.33366 7.29278 5.61461 6.6145 6.11471 6.1144C6.6148 5.61431 7.29308 5.33335 8.00033 5.33335H24.0003C24.7076 5.33335 25.3858 5.61431 25.8859 6.1144C26.386 6.6145 26.667 7.29278 26.667 8.00002V24C26.667 24.7073 26.386 25.3855 25.8859 25.8856C25.3858 26.3857 24.7076 26.6667 24.0003 26.6667H8.00033C7.29308 26.6667 6.6148 26.3857 6.11471 25.8856C5.61461 25.3855 5.33366 24.7073 5.33366 24V8.00002ZM12.0003 14.6667C12.0003 14.3131 11.8598 13.9739 11.6098 13.7239C11.3598 13.4738 11.0206 13.3334 10.667 13.3334C10.3134 13.3334 9.97423 13.4738 9.72418 13.7239C9.47413 13.9739 9.33366 14.3131 9.33366 14.6667V22.6667C9.33366 23.0203 9.47413 23.3594 9.72418 23.6095C9.97423 23.8595 10.3134 24 10.667 24C11.0206 24 11.3598 23.8595 11.6098 23.6095C11.8598 23.3594 12.0003 23.0203 12.0003 22.6667V14.6667ZM12.667 10C12.667 10.5305 12.4563 11.0392 12.0812 11.4142C11.7061 11.7893 11.1974 12 10.667 12C10.1366 12 9.62785 11.7893 9.25278 11.4142C8.87771 11.0392 8.66699 10.5305 8.66699 10C8.66699 9.46959 8.87771 8.96088 9.25278 8.58581C9.62785 8.21073 10.1366 8.00002 10.667 8.00002C11.1974 8.00002 11.7061 8.21073 12.0812 8.58581C12.4563 8.96088 12.667 9.46959 12.667 10V10ZM16.0003 13.3334C16.4537 13.3334 16.8537 13.56 17.0937 13.904C17.7809 13.5295 18.551 13.3333 19.3337 13.3334C22.2137 13.3334 24.0003 15.9014 24.0003 18.0947V22.6667C24.0003 23.0203 23.8598 23.3594 23.6098 23.6095C23.3598 23.8595 23.0206 24 22.667 24C22.3134 24 21.9742 23.8595 21.7242 23.6095C21.4741 23.3594 21.3337 23.0203 21.3337 22.6667V18.0934C21.3337 17.0694 20.4537 15.9987 19.3337 15.9987C18.635 15.9987 17.863 16.3787 17.3337 17.2827V22.6667C17.3337 23.0203 17.1932 23.3594 16.9431 23.6095C16.6931 23.8595 16.3539 24 16.0003 24C15.6467 24 15.3076 23.8595 15.0575 23.6095C14.8075 23.3594 14.667 23.0203 14.667 22.6667V14.6667C14.667 14.3131 14.8075 13.9739 15.0575 13.7239C15.3076 13.4738 15.6467 13.3334 16.0003 13.3334V13.3334Z" fill="#C4B6B6"/>
</g>
</svg>
